<svg width="803" height="814" viewBox="0 0 803 814" fill="none" xmlns="http://www.w3.org/2000/svg">
<path d="M606.688 241.664C653.241 288.217 682.286 349.222 688.6 413.706C694.913 478.191 678.08 541.923 641.129 593.439C604.178 644.955 549.534 680.874 487.025 694.736C424.515 708.597 358.244 699.492 300.13 669.057C242.017 638.622 195.875 588.855 170.004 528.707C144.134 468.56 140.232 401.979 159.001 340.941C177.77 279.903 217.978 228.413 272.393 195.733C326.809 163.053 391.859 151.327 455.845 162.666L418.598 429.755L606.688 241.664Z" fill="#00417D"/>
<path d="M571.696 195.515C618.249 242.068 647.294 303.073 653.607 367.557C659.921 432.042 643.088 495.773 606.137 547.289C569.186 598.805 514.542 634.725 452.032 648.586C389.523 662.448 323.252 653.342 265.138 622.907C207.025 592.472 160.883 542.705 135.012 482.558C109.142 422.41 105.24 355.83 124.009 294.791C142.778 233.753 182.986 182.264 237.401 149.584C291.816 116.904 356.867 105.178 420.853 116.516L383.605 383.605L571.696 195.515Z" fill="white"/>
<path d="M571.696 195.515C606.267 230.086 631.402 272.858 644.538 319.471C657.673 366.083 658.34 414.869 646.47 460.856C634.6 506.842 610.618 548.384 576.968 581.247C543.318 614.111 501.204 637.12 454.919 647.929L383.605 383.605L571.696 195.515Z" fill="#FFC736"/>
</svg>
