<svg width="70" height="70" viewBox="0 0 70 70" fill="none" xmlns="http://www.w3.org/2000/svg">
<path fill-rule="evenodd" clip-rule="evenodd" d="M54.4286 62.8572H14.4286C11.2772 62.8572 8.71429 60.2943 8.71429 57.1429V17.1429C8.71429 13.9915 11.2772 11.4286 14.4286 11.4286H20.1429V5.71436H25.8572V11.4286H43V5.71436H48.7143V11.4286H54.4286C57.58 11.4286 60.1429 13.9915 60.1429 17.1429V57.1429C60.1429 60.2943 57.58 62.8572 54.4286 62.8572ZM41.9286 40.1604L30.3123 51.7767C30.1523 51.9367 29.9511 52.0504 29.7311 52.1054L23.1786 53.3929L24.4661 46.8392C24.5213 46.6197 24.6349 46.4193 24.7948 46.2592L36.4111 34.6429L41.9286 40.1604ZM46.4105 34.6429C46.4105 35.3058 46.1473 35.9416 45.6786 36.4104L43.6961 38.3929L38.1786 32.8754L40.1611 30.8929C40.6299 30.4242 41.2657 30.161 41.9286 30.161C42.5915 30.161 43.2273 30.4242 43.6961 30.8929L45.6786 32.8754C46.1473 33.3442 46.4105 33.98 46.4105 34.6429Z" fill="#F0F0F0"/>
<mask id="mask0_122_790" style="mask-type:alpha" maskUnits="userSpaceOnUse" x="8" y="5" width="53" height="58">
<path fill-rule="evenodd" clip-rule="evenodd" d="M54.4286 62.8572H14.4286C11.2772 62.8572 8.71429 60.2943 8.71429 57.1429V17.1429C8.71429 13.9915 11.2772 11.4286 14.4286 11.4286H20.1429V5.71436H25.8572V11.4286H43V5.71436H48.7143V11.4286H54.4286C57.58 11.4286 60.1429 13.9915 60.1429 17.1429V57.1429C60.1429 60.2943 57.58 62.8572 54.4286 62.8572ZM41.9286 40.1604L30.3123 51.7767C30.1523 51.9367 29.9511 52.0504 29.7311 52.1054L23.1786 53.3929L24.4661 46.8392C24.5213 46.6197 24.6349 46.4193 24.7948 46.2592L36.4111 34.6429L41.9286 40.1604ZM46.4105 34.6429C46.4105 35.3058 46.1473 35.9416 45.6786 36.4104L43.6961 38.3929L38.1786 32.8754L40.1611 30.8929C40.6299 30.4242 41.2657 30.161 41.9286 30.161C42.5915 30.161 43.2273 30.4242 43.6961 30.8929L45.6786 32.8754C46.1473 33.3442 46.4105 33.98 46.4105 34.6429Z" fill="#D9D9D9"/>
</mask>
<g mask="url(#mask0_122_790)">
<path d="M14.4286 27.1428H54.4286V53.1428C54.4286 55.352 52.6377 57.1428 50.4286 57.1428H18.4286C16.2195 57.1428 14.4286 55.352 14.4286 53.1428V27.1428Z" fill="#AAAAAA"/>
<path d="M14.4286 24C14.4286 21.7909 16.2194 20 18.4286 20H50.4286C52.6377 20 54.4286 21.7909 54.4286 24V27.1429H14.4286V24Z" fill="#FFB13D"/>
</g>
</svg>
